<svg id="Layer_1" data-name="Layer 1" xmlns="http://www.w3.org/2000/svg" viewBox="0 0 322.56 135.39"><defs><style>.cls-1{fill:none;}.cls-2{fill:#e0e4ef;}</style></defs><title>LOGO_KRĀSAINS</title><rect class="cls-1" width="322.56" height="135.39"/><path class="cls-2" d="M73.65,47H66.2V61.39h7.45a7,7,0,0,0,7-7v-.48A7,7,0,0,0,73.65,47Z"/><path class="cls-2" d="M55.32,47h6.62V83H47.4V54.88A7.91,7.91,0,0,1,55.32,47Z"/><path class="cls-2" d="M43.1,47H30.16V61.39h13V52.68A6.65,6.65,0,0,1,46.4,47Z"/><path class="cls-2" d="M108.32,61V72.2a2.14,2.14,0,0,0,.53,1.63,2.63,2.63,0,0,0,1.81.49h2.56V77.8h-3.29a6.34,6.34,0,0,1-4.32-1.32,5.43,5.43,0,0,1-1.5-4.28V61h-2.38v-3.4h2.38v-5h4.21v5h4.9V61Z"/><path class="cls-2" d="M135.39,69.28H120a5.6,5.6,0,0,0,1.79,3.88,5.67,5.67,0,0,0,4,1.46,4.88,4.88,0,0,0,4.75-2.82H135a9.08,9.08,0,0,1-3.31,4.55,9.71,9.71,0,0,1-5.94,1.78,10.29,10.29,0,0,1-5.18-1.3A9.24,9.24,0,0,1,117,73.17a11.17,11.17,0,0,1-1.3-5.47,11.42,11.42,0,0,1,1.26-5.47,8.89,8.89,0,0,1,3.55-3.64,10.57,10.57,0,0,1,5.25-1.28,10.26,10.26,0,0,1,5.08,1.24A8.79,8.79,0,0,1,134.29,62a10.52,10.52,0,0,1,1.25,5.18A13.09,13.09,0,0,1,135.39,69.28Zm-4.21-3.37a4.75,4.75,0,0,0-1.65-3.7,5.9,5.9,0,0,0-4-1.39,5.36,5.36,0,0,0-3.7,1.37A5.75,5.75,0,0,0,120,65.91Z"/><path class="cls-2" d="M154.07,58.3A7,7,0,0,1,157,61.23a9.63,9.63,0,0,1,1.06,4.68V77.8h-4.13V66.53a5.86,5.86,0,0,0-1.35-4.15,4.82,4.82,0,0,0-3.7-1.45,4.87,4.87,0,0,0-3.71,1.45,5.8,5.8,0,0,0-1.37,4.15V77.8h-4.17V57.64h4.17v2.3A6.94,6.94,0,0,1,146.42,58a8.39,8.39,0,0,1,3.38-.69A9.05,9.05,0,0,1,154.07,58.3Z"/><path class="cls-2" d="M206.52,69.28H191.11a5.59,5.59,0,0,0,1.79,3.88,5.66,5.66,0,0,0,4,1.46,4.88,4.88,0,0,0,4.76-2.82h4.5a9.07,9.07,0,0,1-3.31,4.55,9.71,9.71,0,0,1-5.95,1.78,10.28,10.28,0,0,1-5.18-1.3,9.22,9.22,0,0,1-3.59-3.66,11.14,11.14,0,0,1-1.3-5.47,11.45,11.45,0,0,1,1.26-5.47,8.88,8.88,0,0,1,3.55-3.64,10.56,10.56,0,0,1,5.25-1.28,10.27,10.27,0,0,1,5.09,1.24A8.79,8.79,0,0,1,205.42,62a10.52,10.52,0,0,1,1.24,5.18A13.1,13.1,0,0,1,206.52,69.28Zm-4.21-3.37a4.74,4.74,0,0,0-1.65-3.7,5.89,5.89,0,0,0-4-1.39A5.36,5.36,0,0,0,193,62.2a5.74,5.74,0,0,0-1.83,3.71Z"/><path class="cls-2" d="M217.37,58.17a7.21,7.21,0,0,1,3.6-.86v4.32h-1.06a5.08,5.08,0,0,0-3.71,1.24q-1.26,1.24-1.26,4.32V77.8h-4.17V57.64h4.17v2.93A6.56,6.56,0,0,1,217.37,58.17Z"/><path class="cls-2" d="M265.74,58.17a7.21,7.21,0,0,1,3.6-.86v4.32h-1.06a5.08,5.08,0,0,0-3.71,1.24q-1.26,1.24-1.26,4.32V77.8h-4.17V57.64h4.17v2.93A6.56,6.56,0,0,1,265.74,58.17Z"/><path class="cls-2" d="M276.77,76.83a9.32,9.32,0,0,1-3.62-3.66,11,11,0,0,1-1.32-5.47,10.85,10.85,0,0,1,1.35-5.45,9.38,9.38,0,0,1,3.7-3.66,11.33,11.33,0,0,1,10.46,0,9.35,9.35,0,0,1,3.7,3.66,10.82,10.82,0,0,1,1.36,5.45A10.61,10.61,0,0,1,291,73.15a9.62,9.62,0,0,1-3.79,3.68,10.9,10.9,0,0,1-5.29,1.3A10.32,10.32,0,0,1,276.77,76.83Zm8.18-3.09a5.84,5.84,0,0,0,2.29-2.3,7.4,7.4,0,0,0,.88-3.73,7.57,7.57,0,0,0-.84-3.71A5.7,5.7,0,0,0,285,61.7a6.11,6.11,0,0,0-3-.77,6,6,0,0,0-3,.77A5.49,5.49,0,0,0,276.88,64a7.86,7.86,0,0,0-.8,3.71,7.07,7.07,0,0,0,1.66,5,5.5,5.5,0,0,0,4.19,1.78A6.2,6.2,0,0,0,284.95,73.74Z"/><path class="cls-2" d="M178.49,49.87h0V60.46a8,8,0,0,0-3.06-2.29,9.48,9.48,0,0,0-3.9-.86,9.2,9.2,0,0,0-8.29,4.94A11.16,11.16,0,0,0,162,67.63a11.47,11.47,0,0,0,1.26,5.43,9.45,9.45,0,0,0,3.44,3.73,9,9,0,0,0,4.81,1.33,8.82,8.82,0,0,0,4.15-1,7.82,7.82,0,0,0,2.84-2.42v3h4.21V47Zm-.86,21.47a6,6,0,0,1-2.25,2.36,5.89,5.89,0,0,1-3,.81,5.82,5.82,0,0,1-3-.82,6.07,6.07,0,0,1-2.27-2.4,7.52,7.52,0,0,1-.86-3.66,7.21,7.21,0,0,1,.86-3.6,6,6,0,0,1,8.25-2.29,6.05,6.05,0,0,1,2.25,2.34,7.32,7.32,0,0,1,.86,3.62A7.42,7.42,0,0,1,177.63,71.34Z"/><path class="cls-2" d="M253.75,62.25a9.14,9.14,0,0,0-8.23-4.94,8.83,8.83,0,0,0-4.13,1,8.48,8.48,0,0,0-2.89,2.34v-3h-4.17V88.42l4.17-2.88V74.87a9.18,9.18,0,0,0,2.93,2.32,8.76,8.76,0,0,0,4.1.93,9,9,0,0,0,4.81-1.33,9.31,9.31,0,0,0,3.42-3.73A11.62,11.62,0,0,0,255,67.63,11.29,11.29,0,0,0,253.75,62.25Zm-3.86,9a6.07,6.07,0,0,1-2.27,2.4,5.93,5.93,0,0,1-6,0,6,6,0,0,1-2.27-2.36,7.39,7.39,0,0,1-.86-3.64,7.29,7.29,0,0,1,.86-3.62,6,6,0,0,1,2.27-2.34,5.92,5.92,0,0,1,3-.81,6.09,6.09,0,0,1,3,.79A5.9,5.9,0,0,1,249.9,64a7.21,7.21,0,0,1,.86,3.6A7.52,7.52,0,0,1,249.9,71.29Z"/></svg>